<?xml version="1.0" encoding="utf-8"?>
<!-- Generator: Adobe Illustrator 24.1.0, SVG Export Plug-In . SVG Version: 6.00 Build 0)  -->
<svg version="1.1" id="Aspose.Diagram_for_Node.js_via_Java"
	 xmlns="http://www.w3.org/2000/svg" xmlns:xlink="http://www.w3.org/1999/xlink" x="0px" y="0px" viewBox="0 0 272 272"
	 style="enable-background:new 0 0 272 272;" xml:space="preserve">
<style type="text/css">
	.st0{fill:#FFFFFF;}
	.st1{fill-rule:evenodd;clip-rule:evenodd;fill:#68A165;}
	.st2{fill:#68A165;}
	.st3{fill:#DBDBDD;}
	.st4{fill:#EFEDF0;}
</style>
<g>
	<path class="st0" d="M245,233.5c-31.2,36.9-130.4,30.5-130.4,30.5H7.8V9.6h257.5v124.5C265.2,134.1,266.4,208.2,245,233.5
		L245,233.5z"/>
	<path class="st1" d="M85.2,177.8c0-25.8,9-47.6,27.1-65.7C130.2,94,152.2,85,178,85c25.4,0,47.4,9,65.6,27.1s27.2,40,27.2,65.7
		s-9,47.4-27.2,65.6c-18.2,18.2-40,27.2-65.6,27.2c-26,0-47.7-9-65.7-27.2C94.2,225.4,85.2,203.4,85.2,177.8"/>
	<path class="st1" d="M271,177.8h-10.9V21.2c0-4-1.4-6.7-4.3-8.1c-1-0.5-2.3-0.9-3.5-1l-1.7-0.2H21.4c-4.1,0-6.8,1.4-8.1,4.2
		c-0.8,1.7-1.2,3.4-1.2,5.2v229.2c0,4,1.4,6.7,4.2,8c1.7,0.8,3.3,1.2,5.2,1.4h152l4.8,10.9H18c-2.8,0-5.6-0.7-8.5-2.1
		C3.9,265.9,1,261,1,253.9V18.1c0-2.8,0.7-5.6,2.3-8.5C6.1,4.1,11,1.2,18,1.2H254l2.6,0.3c2.1,0.3,4.1,0.9,5.8,1.9
		c5.6,2.8,8.5,7.8,8.5,14.7L271,177.8L271,177.8z"/>
	<g>
		<path class="st2" d="M58.2,35.7c0,3.7-1,6.8-3.3,9.3c-2.1,2.5-5.2,4.1-9.1,5v0.3c4.7,0.6,8.2,2,10.6,4.3c2.4,2.4,3.5,5.4,3.5,9.3
			c0,5.6-2,9.9-6,13s-9.6,4.4-17,4.4c-6.4,0-12-1-16.4-3.2v-8.4c2.5,1.1,5.1,2.3,7.9,2.8c2.8,0.7,5.4,1,8,1c4.6,0,7.9-0.8,10.2-2.5
			c2.3-1.7,3.4-4.2,3.4-7.8c0-3.2-1.2-5.4-3.7-6.9c-2.5-1.6-6.3-2.3-11.7-2.3h-5.1v-7.7h5.2c9.4,0,14-3.2,14-9.6
			c0-2.5-0.8-4.4-2.5-5.8c-1.7-1.4-4-2-7.1-2c-2.3,0-4.3,0.3-6.4,0.9c-2.1,0.6-4.4,1.9-7.2,3.6l-4.6-6.5c5.4-4,11.6-5.9,18.6-5.9
			c5.9,0,10.4,1.2,13.9,3.7C56.6,27.7,58.2,31.2,58.2,35.7z"/>
		<path class="st2" d="M113,50.9c0,9.6-2.7,17-8.1,22.1c-5.4,5.2-13,7.7-23.1,7.7H65.5V22.2h18.1c9.3,0,16.6,2.5,21.7,7.6
			C110.4,34.8,113,41.8,113,50.9z M102.9,51.3c0-14-6.5-21-19.6-21H75v42.4h6.8C95.9,72.6,102.9,65.5,102.9,51.3z"/>
	</g>
	<g id="Box_1_">
		<polygon class="st3" points="123.8,132.9 178.9,145.6 232.2,132.9 178,117.1 		"/>
		<polygon class="st4" points="178.9,238.5 123.8,223.7 123.8,132.9 178.9,145.6 		"/>
		<polygon class="st0" points="232.2,132.9 232.2,225.1 178.9,238.5 178.9,145.6 		"/>
	</g>
</g>
</svg>
