<?xml version="1.0" encoding="utf-8"?>
<!-- Generator: Adobe Illustrator 24.1.0, SVG Export Plug-In . SVG Version: 6.00 Build 0)  -->
<svg version="1.1" id="Aspose.Diagram_for_Node.js_via_Java"
	 xmlns="http://www.w3.org/2000/svg" xmlns:xlink="http://www.w3.org/1999/xlink" x="0px" y="0px" viewBox="0 0 272 272"
	 style="enable-background:new 0 0 272 272;" xml:space="preserve">
<style type="text/css">
	.st0{fill:#FFFFFF;}
	.st1{fill-rule:evenodd;clip-rule:evenodd;fill:#68A165;}
	.st2{fill:#DD4443;}
	.st3{fill:#68A165;}
	.st4{fill:#DBDBDD;}
	.st5{fill:#EFEDF0;}
</style>
<path class="st0" d="M208.5,239.1c-26.6,31.5-111.2,26-111.2,26H6.2V48.2h219.5v106.2C225.7,154.4,226.7,217.5,208.5,239.1
	L208.5,239.1z"/>
<path class="st1" d="M72.2,191.6c0-22,7.7-40.6,23.1-56c15.3-15.4,34-23.1,56-23.1c21.7,0,40.4,7.7,55.9,23.1s23.2,34.1,23.2,56
	s-7.7,40.4-23.2,55.9s-34.1,23.2-55.9,23.2c-22.1,0-40.7-7.7-56-23.2C79.9,232.2,72.2,213.5,72.2,191.6"/>
<path class="st1" d="M230.6,191.6h-9.3V58.1c0-3.4-1.2-5.7-3.7-6.9c-0.9-0.4-1.9-0.8-3-0.9l-1.4-0.2H17.8c-3.5,0-5.8,1.2-6.9,3.6
	c-0.7,1.4-1.1,2.9-1.1,4.4v195.4c0,3.4,1.2,5.7,3.6,6.8c1.4,0.7,2.8,1.1,4.4,1.2h129.6l4.1,9.3H14.9c-2.4,0-4.8-0.6-7.2-1.8
	c-4.8-2.4-7.2-6.6-7.2-12.6V55.3c0-2.4,0.6-4.8,1.9-7.2C4.8,43.4,9,41,14.9,41h201.3l2.2,0.3c1.8,0.3,3.5,0.8,4.9,1.6
	c4.8,2.4,7.2,6.6,7.2,12.5L230.6,191.6L230.6,191.6z"/>
<circle class="st2" cx="216.4" cy="56" r="55"/>
<path class="st0" d="M205.8,73.6c0,0-3.1,1.8,2.2,2.4c6.4,0.7,9.7,0.6,16.8-0.7c0,0,1.8,1.1,4.5,2.2
	C213.4,84.3,193.2,77.1,205.8,73.6 M203.9,64.7c0,0-3.5,2.6,1.8,3.1c6.8,0.7,12.3,0.8,21.6-1c0,0,1.3,1.3,3.4,2
	C211.5,74.5,190.2,69.3,203.9,64.7 M220.2,49.8c3.9,4.5-1,8.5-1,8.5s9.9-5.1,5.4-11.5c-4.2-6-7.5-8.9,10.1-19.2
	C234.6,27.6,206.9,34.5,220.2,49.8"/>
<path class="st0" d="M241.1,80.2c0,0,2.2,1.9-2.5,3.4c-9.2,2.8-38,3.6-46,0.1c-2.8-1.3,2.5-3,4.2-3.4c1.8-0.3,2.8-0.3,2.8-0.3
	c-3.2-2.2-20.7,4.4-8.9,6.4C222.9,91.5,249.5,83.9,241.1,80.2 M207.2,55.6c0,0-14.7,3.5-5.2,4.7c4,0.5,12,0.4,19.4-0.2
	c6-0.5,12.2-1.6,12.2-1.6s-2.2,0.9-3.7,2c-14.9,3.9-43.8,2.1-35.5-1.9C201.5,55.2,207.2,55.6,207.2,55.6 M233.7,70.4
	c15.2-7.9,8.1-15.5,3.3-14.4c-1.2,0.3-1.7,0.4-1.7,0.4s0.4-0.7,1.3-1c9.7-3.4,17.1,10-3.1,15.4C233.2,70.7,233.6,70.5,233.7,70.4
	 M224.5,11.1c0,0,8.4,8.4-7.9,21.3c-13.1,10.4-3,16.2,0,23.1c-7.7-6.9-13.3-13-9.5-18.6C212.5,28.5,227.9,24.4,224.5,11.1"/>
<path class="st0" d="M208.8,91.7c14.6,0.9,37-0.5,37.5-7.4c0,0-1,2.6-12,4.7c-12.4,2.3-27.7,2.1-36.9,0.6
	C197.2,89.5,199.2,91.1,208.8,91.7"/>
<g>
	<path class="st3" d="M49.2,70.4c0,3.2-0.9,5.8-2.8,7.9c-1.8,2.1-4.4,3.5-7.8,4.2v0.3c4,0.5,7,1.7,9,3.7c2,2,3,4.6,3,7.9
		c0,4.8-1.7,8.5-5.1,11.1c-3.4,2.6-8.2,3.9-14.5,3.9c-5.5,0-10.2-0.9-14-2.7v-7.1c2.1,1,4.3,1.9,6.7,2.4c2.4,0.6,4.6,0.9,6.8,0.9
		c3.9,0,6.7-0.7,8.7-2.1c1.9-1.4,2.9-3.6,2.9-6.6c0-2.7-1.1-4.6-3.2-5.9c-2.1-1.3-5.4-1.9-10-1.9h-4.3v-6.5h4.4
		c8,0,11.9-2.7,11.9-8.2c0-2.1-0.7-3.8-2.1-4.9c-1.4-1.2-3.4-1.7-6.1-1.7c-1.9,0-3.7,0.3-5.5,0.8s-3.8,1.6-6.2,3.1l-3.9-5.6
		c4.6-3.4,9.9-5,15.9-5c5,0,8.9,1.1,11.8,3.2C47.8,63.6,49.2,66.6,49.2,70.4z"/>
	<path class="st3" d="M95.9,83.4c0,8.2-2.3,14.5-6.9,18.9s-11.1,6.5-19.7,6.5H55.4V59h15.4c7.9,0,14.1,2.1,18.5,6.4
		S95.9,75.6,95.9,83.4z M87.3,83.7c0-11.9-5.6-17.9-16.7-17.9h-7.1v36.2h5.8C81.3,101.9,87.3,95.8,87.3,83.7z"/>
</g>
<g id="Box_1_">
	<polygon class="st4" points="105.1,153.3 152.1,164.2 197.5,153.3 151.3,139.8 	"/>
	<polygon class="st5" points="152.1,243.4 105.1,230.8 105.1,153.3 152.1,164.2 	"/>
	<polygon class="st0" points="197.5,153.3 197.5,231.9 152.1,243.4 152.1,164.2 	"/>
</g>
</svg>
