<?xml version="1.0" encoding="utf-8"?>
<!-- Generator: Adobe Illustrator 24.1.0, SVG Export Plug-In . SVG Version: 6.00 Build 0)  -->
<svg version="1.1" id="Layer_1" xmlns="http://www.w3.org/2000/svg" xmlns:xlink="http://www.w3.org/1999/xlink" x="0px" y="0px"
	 viewBox="0 0 320 320" style="enable-background:new 0 0 320 320;" xml:space="preserve">
<style type="text/css">
	.st0{fill:none;stroke:#EFEFEF;stroke-linecap:round;stroke-linejoin:round;stroke-miterlimit:10;stroke-dasharray:4,8;}
	.st1{fill-rule:evenodd;clip-rule:evenodd;fill:#FFFFFF;}
	.st2{fill-rule:evenodd;clip-rule:evenodd;fill:#68A165;}
	.st3{fill:#68A165;}
	.st4{fill:#DBDBDD;}
	.st5{fill:#EFEDF0;}
	.st6{fill:#FFFFFF;}
	.st7{fill:#DEDFDF;}
	.st8{fill:#4296D2;}
	.st9{fill:#EFEFEF;}
	.st10{fill:#539E43;}
</style>
<circle class="st0" cx="154.2" cy="163.2" r="123.7"/>
<path id="XMLID_3_" class="st1" d="M227.4,154.2c-19.6,0-36.2,6.9-49.9,20.7c-13.8,13.7-20.6,30.3-20.6,49.9s6.9,36.2,20.6,49.8
	c5,5.1,10.5,9.3,16.4,12.6h-85.6c-1.4-0.1-2.7-0.5-4-1.2c-2.1-1-3.2-3-3.2-6V105.7c0.2-1.5,0.5-2.9,1-4c1.1-2.1,3.2-3.2,6.2-3.2
	h174.2l1.2,0.3c1,0.2,1.9,0.4,2.7,0.8c2.2,1,3.3,3.1,3.3,6.2v85.7c-3.2-5.9-7.4-11.4-12.6-16.5C263.3,161.1,246.7,154.2,227.4,154.2
	L227.4,154.2z"/>
<path id="XMLID_1_" class="st2" d="M227.4,154.2c19.3,0,35.9,6.9,49.7,20.7c5.1,5.1,9.3,10.6,12.6,16.5v-85.7c0-3.1-1.1-5.1-3.3-6.2
	c-0.8-0.3-1.7-0.6-2.7-0.8l-1.2-0.3H108.3c-3,0-5,1.1-6.2,3.2c-0.5,1.1-0.9,2.4-1,4v174.2c0,3,1.1,5,3.2,6c1.3,0.7,2.6,1.1,4,1.2
	h85.6c-5.9-3.2-11.4-7.4-16.4-12.6c-13.8-13.6-20.6-30.2-20.6-49.8s6.9-36.2,20.6-49.9C191.2,161.1,207.8,154.2,227.4,154.2
	L227.4,154.2z M287.1,90.5c1.9,0.3,3.3,0.8,4.4,1.4c4.3,2.1,6.4,5.8,6.4,11.2v121.6c0,19.5-6.9,36.1-20.8,49.8
	c-13.8,13.9-30.4,20.8-49.7,20.8H105.7c-2.1,0-4.2-0.5-6.4-1.5c-4.3-2.2-6.4-6-6.4-11.3V103.1c0-2.1,0.6-4.3,1.7-6.4
	c2.1-4.3,5.8-6.4,11.2-6.4h179.4L287.1,90.5L287.1,90.5z"/>
<path class="st3" d="M144.8,126.6c0,2.8-0.8,5.2-2.5,7c-1.6,1.9-4,3.1-6.9,3.8v0.2c3.6,0.4,6.2,1.6,8,3.3c1.8,1.8,2.7,4.1,2.7,7.1
	c0,4.3-1.5,7.6-4.5,9.9c-3,2.3-7.3,3.5-12.9,3.5c-4.9,0-9.1-0.8-12.5-2.4v-6.4c1.9,0.9,3.9,1.7,6,2.2s4.1,0.8,6.1,0.8
	c3.4,0,6-0.6,7.7-1.9s2.6-3.2,2.6-5.9c0-2.4-0.9-4.1-2.8-5.2c-1.9-1.1-4.8-1.7-8.9-1.7H123v-5.8h3.9c7.1,0,10.6-2.5,10.6-7.4
	c0-1.9-0.6-3.4-1.9-4.4c-1.2-1-3.1-1.5-5.5-1.5c-1.7,0-3.3,0.2-4.9,0.7s-3.4,1.4-5.5,2.8l-3.5-5c4.1-3,8.8-4.5,14.2-4.5
	c4.5,0,8,1,10.5,2.9C143.5,120.6,144.8,123.2,144.8,126.6L144.8,126.6z M186.4,138.2c0,7.3-2,12.9-6.1,16.8
	c-4.1,3.9-9.9,5.8-17.6,5.8h-12.4v-44.4H164c7.1,0,12.6,1.9,16.5,5.7C184.5,125.9,186.4,131.3,186.4,138.2z M178.8,138.4
	c0-10.6-5-16-14.9-16h-6.3v32.3h5.2C173.4,154.7,178.8,149.3,178.8,138.4z"/>
<g id="Box_2_">
	<path class="st4" d="M188.7,188.9l42,9.7l40.5-9.7l-41.2-12L188.7,188.9L188.7,188.9z"/>
	<path class="st5" d="M230.7,269.3l-42-11.2v-69.2l42,9.7V269.3z"/>
	<path class="st6" d="M271.2,188.9V259l-40.5,10.3v-70.7L271.2,188.9z"/>
</g>
<path class="st7" d="M274.8,74.4c18.2,0,33,14.8,33,33s-14.8,33-33,33s-33-14.8-33-33S256.6,74.4,274.8,74.4 M274.8,71.4
	c-19.9,0-36,16.1-36,36s16.1,36,36,36s36-16.1,36-36S294.7,71.4,274.8,71.4z"/>
<path class="st8" d="M212.9,47.1l18.3,1.1l-1.4,17l-7.2,5l-7.2-3.5L212.9,47.1L212.9,47.1z M159.3,50.4h4.1l1.4-3.3l0.6-19.4
	l-6.6-3.8h-12.5l-1,14.2l0.5,11.9L159.3,50.4z M89,54.9l-6.9-6.2l-11.7,0.4l-0.5,25.8l0.8,0.9H89V54.9z M46.5,116.5l-6.2-6.2H28.1
	v26.9l18.4,0.4C46.5,137.6,46.5,116.5,46.5,116.5z M51,191.1l-6.1-5.5l-16.2-0.3l-1.5,1.8v21.6l23.3,0.4L51,191.1z M78.8,247.1l-6-6
	l-14.4-0.4L59,268h18.7L78.8,247.1z"/>
<path class="st9" d="M210.8,45.1h22.5l-2.1,23.2l-9.2,3.1l-9.2-3.1L210.8,45.1z M228.8,52.6l0.3-2.8H215l0.7,8.5h9.8l-0.4,3.6
	l-3.1,0.8l-3.2-0.8l-0.2-2.2h-2.8l0.4,4.4l5.8,1.6h0.1l5.7-1.6l0.8-8.7h-10.3l-0.2-2.9C218.1,52.5,228.8,52.6,228.8,52.6z
	 M165.4,27.7c0.6,0.5,0.8,1.2,0.8,2v19.5c0,0.8-0.3,1.4-0.8,2c-0.6,0.5-1.2,0.8-2,0.8h-16.9c-0.8,0-1.4-0.3-2-0.8s-0.8-1.2-0.8-2
	V24.8c0-0.8,0.3-1.4,0.8-2s1.2-0.8,2-0.8h11.9c0.8,0,1.4,0.3,2,0.8L165.4,27.7z M146.6,49.1h16.9V32.2h-6.1c-0.4,0-0.7-0.1-1-0.4
	c-0.3-0.3-0.4-0.6-0.4-1v-6.1h-9.4V49.1z M149.3,33.1c0.6-0.5,1.2-0.8,2-0.8s1.4,0.3,2,0.8s0.8,1.2,0.8,2s-0.3,1.5-0.8,2
	c-0.6,0.5-1.2,0.8-2,0.8s-1.4-0.3-2-0.8s-0.8-1.2-0.8-2S148.7,33.6,149.3,33.1z M148.4,46.3v-3.8l2.3-2.3c0.3-0.3,0.6-0.3,0.9,0
	l2.3,2.3l5.2-5.2c0.3-0.3,0.6-0.3,0.9,0l1.4,1.4v7.5L148.4,46.3L148.4,46.3z M163.2,29.4l-4.4-4.4v4.5
	C158.8,29.4,163.2,29.4,163.2,29.4z M90,53.4c0.6,0.5,0.8,1.2,0.8,2v19.5c0,0.8-0.3,1.4-0.8,2c-0.6,0.6-1.2,0.8-2,0.8H71.1
	c-0.8,0-1.4-0.3-2-0.8c-0.6-0.6-0.8-1.2-0.8-2V50.5c0-0.8,0.3-1.4,0.8-2c0.6-0.5,1.2-0.8,2-0.8H83c0.8,0,1.4,0.3,2,0.8L90,53.4z
	 M71.1,74.8H88V58h-6.1c-0.4,0-0.7-0.1-1-0.4c-0.3-0.3-0.4-0.6-0.4-1v-6.1h-9.4V74.8z M87.7,55.2l-4.4-4.5v4.5H87.7z M51.2,190.1
	c0.5,0.6,0.8,1.2,0.8,2v15.7c0,0.8-0.3,1.4-0.8,2s-1.2,0.8-2,0.8H28.6c-0.8,0-1.5-0.3-2-0.8c-0.5-0.6-0.8-1.2-0.8-2v-20.6
	c0-0.8,0.3-1.4,0.8-2s1.2-0.8,2-0.8h15.7c0.8,0,1.4,0.3,2,0.8L51.2,190.1L51.2,190.1z M48.9,207.8c0.2,0,0.3-0.1,0.3-0.4v-15.2
	c0-0.1,0-0.2-0.1-0.2l-4.6-4.6v5.9c0,0.4-0.1,0.7-0.4,1c-0.3,0.3-0.6,0.4-1,0.4H32.8c-0.4,0-0.7-0.1-1-0.4c-0.3-0.3-0.4-0.6-0.4-1
	v-6.1H29c-0.2,0-0.4,0.1-0.4,0.4v19.9c0,0.2,0.1,0.4,0.4,0.4L48.9,207.8L48.9,207.8z M35.3,197.6c1-1,2.2-1.5,3.6-1.5
	s2.6,0.5,3.6,1.5s1.5,2.2,1.5,3.6s-0.5,2.6-1.5,3.6s-2.2,1.5-3.6,1.5s-2.6-0.5-3.6-1.5s-1.5-2.2-1.5-3.6S34.3,198.6,35.3,197.6z
	 M41.8,187.1h-7.5v4.7h7.5V187.1z M37.3,202.9c0.5,0.4,1,0.7,1.7,0.7s1.2-0.2,1.7-0.7c0.5-0.4,0.7-1,0.7-1.7s-0.2-1.2-0.7-1.7
	c-0.5-0.4-1-0.7-1.7-0.7s-1.2,0.2-1.7,0.7c-0.5,0.4-0.7,1-0.7,1.7S36.8,202.4,37.3,202.9z M79.3,245.6c0.6,0.6,0.8,1.2,0.8,2V267
	c0,0.8-0.3,1.4-0.8,2s-1.2,0.8-2,0.8H60.4c-0.8,0-1.5-0.3-2-0.8s-0.8-1.2-0.8-2v-24.4c0-0.8,0.3-1.4,0.8-2s1.2-0.8,2-0.8h12
	c0.8,0,1.4,0.3,2,0.8L79.3,245.6z M77.3,267v-16.9h-6.1c-0.4,0-0.7-0.1-1-0.4c-0.3-0.3-0.4-0.6-0.4-1v-6.1h-9.4V267H77.3z
	 M66.4,260.3c0.2,0.2,0.2,0.5,0,0.8l-1,1c-0.1,0.1-0.2,0.2-0.4,0.2c-0.1,0-0.2-0.1-0.3-0.2l-3.3-3.2c-0.3-0.2-0.3-0.5,0-0.7l3.3-3.2
	c0.3-0.3,0.5-0.3,0.8,0l1,1v0.1c0.2,0.2,0.2,0.5,0,0.7l-1.9,1.7L66.4,260.3L66.4,260.3z M69.9,252.4l1.4,0.4
	c0.3,0.1,0.5,0.3,0.3,0.6l-3.2,11c-0.1,0.4-0.3,0.5-0.6,0.4l-1.4-0.4c-0.3-0.1-0.5-0.3-0.3-0.6l3.2-11
	C69.4,252.4,69.6,252.3,69.9,252.4z M71.3,256.9c-0.2-0.2-0.2-0.5,0-0.8l1-1.1c0.2-0.3,0.5-0.3,0.8,0l3.3,3.2c0.3,0.2,0.3,0.5,0,0.7
	l-3.3,3.2c-0.3,0.3-0.5,0.3-0.8,0l-1-1V261c-0.2-0.2-0.2-0.5,0-0.7l1.9-1.7L71.3,256.9z M72.6,242.9v4.4H77
	C77,247.3,72.6,242.9,72.6,242.9z M48.3,117.1v19c0,0.8-0.3,1.4-0.8,1.9s-1.2,0.8-2,0.8H28.6c-0.8,0-1.4-0.3-2-0.8
	c-0.5-0.5-0.8-1.2-0.8-1.9v-23.7c0-0.8,0.3-1.4,0.8-1.9s1.2-0.8,2-0.8h12c0.8,0,1.4,0.3,2,0.8l4.9,4.8
	C48,115.7,48.3,116.3,48.3,117.1L48.3,117.1z M45.5,136.1v-16.4h-6.1c-0.4,0-0.7-0.1-1-0.4s-0.4-0.6-0.4-1v-5.9h-9.4v23.7H45.5z
	 M40.8,112.5v4.3h4.5L40.8,112.5z"/>
<path class="st9" d="M84.8,61.1c0.1,0.5,0.2,1.2,0.2,1.9c0,1.1-0.3,2.1-0.8,2.9S82.9,67.4,82,68v2.4c0,0.2-0.1,0.4-0.2,0.6
	s-0.3,0.3-0.4,0.4L79,72.6c-0.1,0-0.2,0.1-0.3,0.1c-0.2,0-0.3-0.1-0.4-0.2s-0.2-0.2-0.2-0.4v-2.4l-0.5,0.5c-0.2,0.1-0.4,0.2-0.6,0.2
	s-0.4-0.1-0.5-0.2L75.4,69c-0.1-0.2-0.2-0.3-0.2-0.6s0.1-0.4,0.2-0.5l0.5-0.5h-2.4c-0.2,0-0.3-0.1-0.4-0.2S73,67,73,66.9
	s0-0.2,0.1-0.3l1.1-2.3c0.1-0.2,0.2-0.3,0.4-0.4s0.4-0.2,0.6-0.2h2.4c0.6-1,1.3-1.7,2.1-2.2s1.7-0.8,2.9-0.8c0.8,0,1.4,0.1,1.9,0.2
	C84.7,60.9,84.8,61,84.8,61.1z M81.3,64.4c0.2,0.2,0.4,0.3,0.7,0.3s0.5-0.1,0.7-0.3S83,64,83,63.7s-0.1-0.5-0.3-0.7
	s-0.4-0.3-0.7-0.3s-0.5,0.1-0.7,0.3S81,63.4,81,63.7S81.1,64.2,81.3,64.4z M40,130.1c0-0.1,0-0.1,0.1-0.2L41,129
	c0.1-0.1,0.2-0.1,0.3-0.1s0.2,0.1,0.2,0.3v3.7c0,0.3-0.1,0.6-0.3,0.8s-0.5,0.3-0.8,0.3h-8.2c-0.3,0-0.6-0.1-0.8-0.3
	s-0.3-0.5-0.3-0.8v-8.2c0-0.3,0.1-0.6,0.3-0.8s0.5-0.3,0.8-0.3h6.7c0.1,0,0.2,0.1,0.3,0.2s0,0.2-0.1,0.3l-0.9,0.9
	c0,0.1-0.1,0.1-0.2,0.1h-5.4v7.5H40V130.1z M40.4,123.9l2.1,2.1c0.1,0.1,0.1,0.2,0,0.3l-5.1,5.1l-2.2,0.2c-0.2,0-0.3,0-0.4-0.1
	s-0.1-0.2-0.1-0.4l0.2-2.2l5.1-5.1C40.2,123.8,40.3,123.8,40.4,123.9z M44.2,123.4c0.2,0.2,0.3,0.4,0.3,0.7s-0.1,0.5-0.3,0.7
	l-0.8,0.8c-0.1,0.1-0.2,0.1-0.3,0l-2.1-2.1c-0.1-0.1-0.1-0.2,0-0.3l0.8-0.8c0.2-0.2,0.4-0.3,0.6-0.3s0.5,0.1,0.7,0.3
	C43.1,122.4,44.2,123.4,44.2,123.4z"/>
<g>
	<path class="st9" d="M274.8,142.1c-19,0-34.5-15.5-34.5-34.5s15.5-34.5,34.5-34.5s34.5,15.5,34.5,34.5S293.9,142.1,274.8,142.1z"/>
	<path class="st7" d="M274.8,74.5c18.2,0,33,14.8,33,33s-14.8,33-33,33s-33-14.8-33-33S256.6,74.5,274.8,74.5 M274.8,71.5
		c-19.9,0-36,16.1-36,36s16.1,36,36,36s36-16.1,36-36S294.7,71.5,274.8,71.5L274.8,71.5z"/>
</g>
<g>
	<path class="st10" d="M274.8,130.1c-0.6,0-1.2-0.2-1.8-0.5l-5.5-3.3c-0.8-0.5-0.4-0.6-0.2-0.7c1.1-0.4,1.3-0.5,2.5-1.1
		c0.1-0.1,0.3,0,0.4,0l4.2,2.5c0.2,0.1,0.4,0.1,0.5,0l16.6-9.6c0.2-0.1,0.2-0.2,0.2-0.5V97.8c0-0.2-0.1-0.4-0.2-0.5l-16.6-9.6
		c-0.2-0.1-0.4-0.1-0.5,0l-16.5,9.7c-0.2,0.1-0.2,0.3-0.2,0.5v19.2c0,0.2,0.1,0.4,0.2,0.5l4.5,2.6c2.5,1.2,4-0.2,4-1.7v-19
		c0-0.2,0.2-0.5,0.5-0.5h2.1c0.2,0,0.5,0.2,0.5,0.5v18.9c0,3.3-1.8,5.2-4.9,5.2c-1,0-1.7,0-3.8-1l-4.4-2.5c-1.1-0.6-1.8-1.8-1.8-3
		V97.9c0-1.2,0.7-2.4,1.8-3l16.6-9.6c1-0.6,2.5-0.6,3.5,0l16.6,9.6c1.1,0.6,1.8,1.8,1.8,3v19.2c0,1.2-0.7,2.4-1.8,3l-16.6,9.6
		C276,130,275.4,130.1,274.8,130.1L274.8,130.1z M279.9,116.9c-7.3,0-8.8-3.3-8.8-6.2c0-0.2,0.2-0.5,0.5-0.5h2.2
		c0.2,0,0.5,0.2,0.5,0.4c0.3,2.2,1.3,3.3,5.7,3.3c3.5,0,5-0.8,5-2.7c0-1.1-0.4-1.9-5.9-2.4c-4.5-0.5-7.4-1.5-7.4-5.1
		c0-3.4,2.8-5.4,7.6-5.4c5.3,0,8,1.8,8.3,5.8c0,0.1,0,0.2-0.1,0.4c-0.1,0.1-0.2,0.2-0.3,0.2H285c-0.2,0-0.4-0.2-0.5-0.4
		c-0.5-2.3-1.8-3-5.2-3c-3.8,0-4.3,1.3-4.3,2.3c0,1.2,0.5,1.6,5.7,2.2c5.1,0.7,7.5,1.6,7.5,5.2C288.2,114.8,285.2,116.9,279.9,116.9
		L279.9,116.9z"/>
</g>
</svg>
